<svg xmlns="http://www.w3.org/2000/svg" xmlns:xlink="http://www.w3.org/1999/xlink" viewBox="0 0 340 122.33"><defs><style>.cls-1{fill:url(#linear-gradient);}.cls-2{fill:url(#linear-gradient-22);}.cls-3{fill:url(#linear-gradient-26);}.cls-4{fill:url(#linear-gradient-27);}.cls-5{fill:url(#linear-gradient-28);}.cls-6{fill:#ffab3c;}.cls-7{fill:url(#linear-gradient-29);}.cls-8{fill:url(#linear-gradient-30);}.cls-9{fill:url(#linear-gradient-31);}.cls-10{fill:url(#linear-gradient-32);}.cls-11{fill:url(#linear-gradient-33);}.cls-12{fill:url(#linear-gradient-34);}.cls-13{fill:url(#linear-gradient-35);}.cls-14{fill:url(#linear-gradient-36);}.cls-15{fill:url(#linear-gradient-37);}</style><linearGradient id="linear-gradient" x1="-65.31" y1="61.17" x2="365.44" y2="61.17" gradientUnits="userSpaceOnUse"><stop offset="0" stop-color="#00f1ff"/><stop offset="0" stop-color="#1b4856"/></linearGradient><linearGradient id="linear-gradient-22" x1="91.81" y1="8.02" x2="207.75" y2="123.96" xlink:href="#linear-gradient"/><linearGradient id="linear-gradient-26" x1="211.94" y1="72.43" x2="161.2" y2="123.17" gradientUnits="userSpaceOnUse"><stop offset="0" stop-color="#eec356"/><stop offset="0.99" stop-color="#ffab3c"/></linearGradient><linearGradient id="linear-gradient-27" x1="111.38" y1="80.41" x2="141.5" y2="80.41" gradientUnits="userSpaceOnUse"><stop offset="0" stop-color="#1b4856"/><stop offset="1" stop-color="#1b4856"/></linearGradient><linearGradient id="linear-gradient-28" x1="80.06" y1="80.41" x2="113.34" y2="80.41" gradientUnits="userSpaceOnUse"><stop offset="0" stop-color="#1b4856"/></linearGradient><linearGradient id="linear-gradient-29" x1="-14.79" y1="52.37" x2="82.76" y2="52.37" xlink:href="#linear-gradient"/><linearGradient id="linear-gradient-30" x1="153.49" y1="496.08" x2="153.49" y2="463.15" gradientTransform="translate(518.09 -64.27) rotate(90)" xlink:href="#linear-gradient"/><linearGradient id="linear-gradient-31" x1="210" y1="83.83" x2="229" y2="83.83" gradientUnits="userSpaceOnUse"><stop offset="0" stop-color="#1b4856"/><stop offset="0.86" stop-color="#1b4856"/><stop offset="1" stop-color="#1b4856"/></linearGradient><linearGradient id="linear-gradient-32" x1="210" y1="54.33" x2="259" y2="54.33" gradientUnits="userSpaceOnUse"><stop offset="0" stop-color="#f3f3f3"/><stop offset="0" stop-color="#f0f1f1"/><stop offset="0" stop-color="#e8eaeb"/><stop offset="0" stop-color="#d9dfe0"/><stop offset="0" stop-color="#c5cfd2"/><stop offset="0" stop-color="#aababe"/><stop offset="0" stop-color="#8aa0a7"/><stop offset="0" stop-color="#63818a"/><stop offset="0" stop-color="#375e6b"/><stop offset="0" stop-color="#1b4856"/></linearGradient><linearGradient id="linear-gradient-33" y1="81.33" x2="259" y2="81.33" xlink:href="#linear-gradient-31"/><linearGradient id="linear-gradient-34" y1="113.33" x2="259" y2="113.33" xlink:href="#linear-gradient-31"/><linearGradient id="linear-gradient-35" y1="54.33" x2="259" y2="54.33" xlink:href="#linear-gradient-31"/><linearGradient id="linear-gradient-36" x1="265.22" y1="81.26" x2="339.77" y2="89.41" gradientUnits="userSpaceOnUse"><stop offset="0.99" stop-color="#ffab3c"/><stop offset="1" stop-color="#ffab3c"/></linearGradient><linearGradient id="linear-gradient-37" x1="307.81" y1="85.06" x2="340.19" y2="88.6" xlink:href="#linear-gradient-36"/></defs><g id="Layer_2" data-name="Layer 2"><g id="Layer_1-2" data-name="Layer 1"><g id="M_LOGO" data-name="M LOGO"><path class="cls-1" d="M197.86,52.86v67.3H171.59V107.9A27.47,27.47,0,0,1,175,94.69Z"/><polygon class="cls-1" points="141.5 96.04 128.35 120.16 111.38 88.95 111.38 40.65 141.5 96.04"/><path class="cls-1" d="M111.38,40.65v79.51H85.11V56.4a15.75,15.75,0,0,1,15.74-15.75Z"/><path class="cls-1" d="M219.48,36.07,204.07,1.7a2.88,2.88,0,0,0-3.8-1.45L165.9,15.66a2.87,2.87,0,0,0,.16,5.31l9,3.45a4.21,4.21,0,0,1,2.2,5.95l-49,89.79H140a24.62,24.62,0,0,0,21.59-12.8L199.74,37.7a4.21,4.21,0,0,1,5.2-1.91l10.89,4.14A2.87,2.87,0,0,0,219.48,36.07Z"/><path class="cls-1" d="M197.86,52.86v67.3H171.59V107.9A27.47,27.47,0,0,1,175,94.69Z"/><polygon class="cls-1" points="141.5 96.04 128.35 120.16 111.38 88.95 111.38 40.65 141.5 96.04"/><path class="cls-1" d="M111.38,40.65v79.51H85.11V56.4a15.75,15.75,0,0,1,15.74-15.75Z"/><path class="cls-1" d="M219.48,36.07,204.07,1.7a2.88,2.88,0,0,0-3.8-1.45L165.9,15.66a2.87,2.87,0,0,0,.16,5.31l9,3.45a4.21,4.21,0,0,1,2.2,5.95l-49,89.79H140a24.62,24.62,0,0,0,21.59-12.8L199.74,37.7a4.21,4.21,0,0,1,5.2-1.91l10.89,4.14A2.87,2.87,0,0,0,219.48,36.07Z"/><path class="cls-1" d="M197.86,52.86v67.3H171.59V107.9A27.47,27.47,0,0,1,175,94.69Z"/><polygon class="cls-1" points="141.5 96.04 128.35 120.16 111.38 88.95 111.38 40.65 141.5 96.04"/><path class="cls-1" d="M111.38,40.65v79.51H85.11V56.4a15.75,15.75,0,0,1,15.74-15.75Z"/><path class="cls-1" d="M219.48,36.07,204.07,1.7a2.88,2.88,0,0,0-3.8-1.45L165.9,15.66a2.87,2.87,0,0,0,.16,5.31l9,3.45a4.21,4.21,0,0,1,2.2,5.95l-49,89.79H140a24.62,24.62,0,0,0,21.59-12.8L199.74,37.7a4.21,4.21,0,0,1,5.2-1.91l10.89,4.14A2.87,2.87,0,0,0,219.48,36.07Z"/><rect class="cls-1" y="42.33" width="77" height="20.08"/><rect class="cls-1" x="27" y="59.1" width="26" height="60.24"/><rect class="cls-1" x="210" y="48.33" width="19" height="71"/><rect class="cls-1" x="210" y="48.33" width="49" height="12"/><rect class="cls-1" x="210" y="75.33" width="49" height="12"/><rect class="cls-1" x="210" y="107.33" width="49" height="12"/><rect class="cls-1" x="210" y="48.33" width="49" height="12"/><path class="cls-1" d="M323,85.83A20.28,20.28,0,1,1,319.44,74l11.61-12.6a37.63,37.63,0,0,0-28.55-13c-20.71,0-37.5,16.57-37.5,37s16.79,37,37.5,37A37.26,37.26,0,0,0,340,85.83Z"/><rect class="cls-1" x="308" y="83.33" width="32" height="7"/><path class="cls-2" d="M197.86,52.86v67.3H171.59V107.9A27.47,27.47,0,0,1,175,94.69Z"/><polygon class="cls-2" points="141.5 96.04 128.35 120.16 111.38 88.95 111.38 40.65 141.5 96.04"/><path class="cls-2" d="M111.38,40.65v79.51H85.11V56.4a15.75,15.75,0,0,1,15.74-15.75Z"/><path class="cls-2" d="M219.48,36.07,204.07,1.7a2.88,2.88,0,0,0-3.8-1.45L165.9,15.66a2.87,2.87,0,0,0,.16,5.31l9,3.45a4.21,4.21,0,0,1,2.2,5.95l-49,89.79H140a24.62,24.62,0,0,0,21.59-12.8L199.74,37.7a4.21,4.21,0,0,1,5.2-1.91l10.89,4.14A2.87,2.87,0,0,0,219.48,36.07Z"/><path class="cls-3" d="M197.86,52.86v67.3H171.59V107.9A27.47,27.47,0,0,1,175,94.69Z"/><polygon class="cls-4" points="141.5 96.04 128.35 120.16 111.38 88.95 111.38 40.65 141.5 96.04"/><path class="cls-5" d="M111.38,40.65v79.51H85.11V56.4a15.75,15.75,0,0,1,15.74-15.75Z"/><path class="cls-6" d="M219.48,36.07,204.07,1.7a2.88,2.88,0,0,0-3.8-1.45L165.9,15.66a2.87,2.87,0,0,0,.16,5.31l9,3.45a4.21,4.21,0,0,1,2.2,5.95l-49,89.79H140a24.62,24.62,0,0,0,21.59-12.8L199.74,37.7a4.21,4.21,0,0,1,5.2-1.91l10.89,4.14A2.87,2.87,0,0,0,219.48,36.07Z"/><rect class="cls-7" y="42.33" width="77" height="20.08"/><rect class="cls-8" x="27" y="59.1" width="26" height="60.24"/><rect class="cls-9" x="210" y="48.33" width="19" height="71"/><rect class="cls-10" x="210" y="48.33" width="49" height="12"/><rect class="cls-11" x="210" y="75.33" width="49" height="12"/><rect class="cls-12" x="210" y="107.33" width="49" height="12"/><rect class="cls-13" x="210" y="48.33" width="49" height="12"/><path class="cls-14" d="M323,85.83A20.28,20.28,0,1,1,319.44,74l11.61-12.6a37.63,37.63,0,0,0-28.55-13c-20.71,0-37.5,16.57-37.5,37s16.79,37,37.5,37A37.26,37.26,0,0,0,340,85.83Z"/><rect class="cls-15" x="308" y="83.33" width="32" height="7"/></g></g></g></svg>